<svg width="331" height="68" xmlns="http://www.w3.org/2000/svg">
 <metadata id="metadata3809">image/svg+xml</metadata>

 <g>
  <title>background</title>
  <rect fill="none" id="canvas_background" height="70" width="333" y="-1" x="-1"/>
 </g>
 <g>
  <title>Layer 1</title>
  <g fill="currentColor" id="g3801" class="lines">
   <path fill="#cd4442" id="path3787" d="m27.261,67.074c-3.60499,0 -7.08,-0.681 -10.326,-2.02c-3.248,-1.334 -6.22,-3.311 -8.832,-5.87c-2.579,-2.574 -4.55899,-5.539 -5.9,-8.824c-1.33799,-3.278 -2.016,-6.765 -2.016,-10.36c0,-3.599 0.679,-7.075 2.018,-10.327c1.34101,-3.253 3.316,-6.225 5.872,-8.831c2.643,-2.588 5.61399,-4.562 8.86,-5.896c6.804,-2.803 14.80999,-2.688 21.604,0.452c3.382,1.582 6.388,3.788 8.942,6.559l0.29601,0.43c0.45698,0.914 0.28999,1.971 -0.42701,2.688c-0.583,0.577 -1.194,0.697 -1.604,0.697c-0.674,0 -1.306,-0.325 -1.73399,-0.894c-2.02101,-2.283 -4.51601,-4.137 -7.32601,-5.402c-5.82,-2.635 -12.41101,-2.699 -18.061,-0.357c-2.722,1.124 -5.174,2.767 -7.29,4.884c-2.165,2.16 -3.834,4.64 -4.96,7.362c-1.12599,2.726 -1.69701,5.629 -1.69701,8.637c0,3.008 0.57001,5.914 1.69701,8.637c1.125,2.723 2.795,5.202 4.96,7.362c2.11499,2.117 4.56701,3.762 7.288,4.886c5.785,2.395 12.588,2.235 18.269,-0.423c2.977,-1.399 5.57699,-3.399 7.72599,-5.949c0.429,-0.611 1.06601,-0.956 1.77201,-0.956c0.404,0 1.00399,0.118 1.568,0.674l0.182,0.209c0.708,0.948 0.63299,2.171 -0.185,2.979c-2.44299,2.97501 -5.57201,5.412 -9.176,7.104c-3.606,1.69101 -7.481,2.549 -11.52,2.549z"/>
   <path id="path3789" d="m82.95599,66.614c-3.55101,0 -6.98899,-0.681 -10.21499,-2.018c-3.22901,-1.343 -6.14101,-3.296 -8.651,-5.81c-2.50701,-2.505 -4.46102,-5.399 -5.802,-8.604c-1.34301,-3.205 -2.02301,-6.654 -2.02301,-10.26c0,-3.606 0.68,-7.057 2.02301,-10.261c1.33898,-3.2 3.29199,-6.095 5.80299,-8.605c2.50999,-2.51 5.421,-4.464 8.649,-5.807c6.50301,-2.699 14.116,-2.661 20.478,0.003c3.199,1.343 6.09401,3.296 8.603,5.802c2.509,2.513 4.464,5.407 5.804,8.606c1.343,3.205 2.022,6.656 2.022,10.262c0,3.606 -0.679,7.055 -2.02,10.26c-1.34501,3.204 -3.29599,6.099 -5.803,8.606c-2.51199,2.508 -5.406,4.464 -8.60499,5.80099c-3.20499,1.34501 -6.659,2.02501 -10.263,2.02501l-0.00001,0zm0,-48.89c-2.958,0 -5.813,0.559 -8.488,1.661c-2.66899,1.102 -5.096,2.731 -7.208,4.843c-2.11399,2.114 -3.74301,4.539 -4.843,7.21c-1.10299,2.669 -1.66,5.523 -1.66,8.486c0,2.962 0.55701,5.817 1.66,8.485c1.09799,2.669 2.72901,5.094 4.843,7.208c2.116,2.115 4.541,3.746 7.208,4.845c5.341,2.199 11.63501,2.199 16.973,0c2.672,-1.099 5.097,-2.731 7.209,-4.845c2.112,-2.112 3.741,-4.537 4.846,-7.208c1.099,-2.674 1.65899,-5.529 1.65899,-8.485c0,-2.958 -0.55999,-5.812 -1.65899,-8.487c-1.105,-2.672 -2.734,-5.098 -4.846,-7.209c-2.109,-2.111 -4.53601,-3.741 -7.209,-4.844c-2.67298,-1.102 -5.52699,-1.66 -8.485,-1.66z"/>
   <path id="path3791" d="m135.28601,66.614l-12.26401,0c-1.27899,0 -2.24399,-0.965 -2.24399,-2.244l0,-48.892c0,-1.28 0.965,-2.247 2.24399,-2.247l12.26401,0c3.76401,0 7.496,0.803 11.09201,2.381c3.362,1.547 6.32498,3.732 8.83398,6.511c2.19501,2.472 3.887,5.258 5.03202,8.291c1.147,3.035 1.729,6.232 1.729,9.511c0,3.121 -0.55301,6.225 -1.64401,9.219c-1.099,2.965 -2.629,5.603 -4.547,7.854c-2.55301,3.092 -5.66,5.503 -9.22201,7.147c-3.54901,1.637 -7.345,2.469 -11.27399,2.469zm-10.01501,-4.49l10.01599,0c3.28302,0 6.44702,-0.704 9.39801,-2.085c2.95501,-1.384 5.52301,-3.369 7.639,-5.905c1.594,-1.972 2.891,-4.184 3.836,-6.55c0.87,-2.517 1.32499,-5.124 1.32499,-7.66c0,-2.722 -0.486,-5.369 -1.44898,-7.878c-0.96201,-2.511 -2.38,-4.833 -4.21402,-6.905c-1.02798,-1.168 -2.168,-2.212 -3.384,-3.103c-1.23398,-0.899 -2.555,-1.692 -3.92499,-2.353c-1.452,-0.635 -2.98599,-1.138 -4.48999,-1.467c-1.49802,-0.327 -3.09,-0.495 -4.73602,-0.495l-10.01599,0l0,44.401z"/>
   <path id="path3793" d="m187.12399,66.614l-12.26199,0c-1.28,0 -2.24499,-0.965 -2.24499,-2.244l0,-48.892c0,-1.28 0.96499,-2.247 2.24499,-2.247l12.26199,0c3.76499,0 7.495,0.803 11.09299,2.381c3.36301,1.547 6.324,3.732 8.83502,6.511c2.194,2.472 3.88498,5.258 5.03098,8.291c1.14801,3.035 1.729,6.232 1.729,9.511c0,3.121 -0.55398,6.225 -1.64499,9.219c-1.099,2.965 -2.625,5.603 -4.544,7.854c-2.55399,3.092 -5.66001,5.503 -9.223,7.147c-3.54898,1.637 -7.346,2.469 -11.276,2.469zm-10.01498,-4.49l10.01501,0c3.28498,0 6.44898,-0.704 9.39899,-2.085c2.953,-1.384 5.52301,-3.369 7.638,-5.905c1.59601,-1.972 2.892,-4.184 3.83701,-6.55c0.86999,-2.517 1.324,-5.124 1.324,-7.66c0,-2.722 -0.48501,-5.369 -1.448,-7.878c-0.962,-2.511 -2.38101,-4.833 -4.21301,-6.905c-1.03,-1.168 -2.168,-2.212 -3.384,-3.103c-1.23499,-0.899 -2.556,-1.692 -3.92499,-2.353c-1.45401,-0.635 -2.987,-1.138 -4.492,-1.467c-1.49802,-0.327 -3.09,-0.495 -4.736,-0.495l-10.01501,0l0,44.401z"/>
   <path id="path3795" d="m226.70401,66.614c-1.28101,0 -2.246,-0.965 -2.246,-2.244l0,-49.197c0,-1.281 0.96499,-2.247 2.246,-2.247c1.28,0 2.246,0.966 2.246,2.247l0,49.197c0,1.279 -0.966,2.244 -2.246,2.244z"/>
   <path id="path3797" d="m258.88699,66.614c-1.281,0 -2.24801,-0.965 -2.24801,-2.244l0,-46.494l-16.06699,0c-1.281,0 -2.246,-0.964 -2.246,-2.244c0,-1.28 0.965,-2.245 2.246,-2.245l36.62802,0c1.28,0 2.246,0.965 2.246,2.245c0,1.28 -0.966,2.244 -2.246,2.244l-16.069,0l0,46.494c0,1.279 -0.96503,2.244 -2.24402,2.244z"/>
   <path id="path3799" d="m309.42401,66.614c-1.281,0 -2.24701,-0.965 -2.24701,-2.244l0,-26.008l-17.56698,-21.589c-0.39002,-0.375 -0.624,-0.859 -0.663,-1.387c-0.028,-0.371 0.024,-1.095 0.69199,-1.763l0.36001,-0.281c1.09,-0.652 2.38199,-0.361 3.01599,0.594l16.40601,20.052l16.41299,-20.147c0.56101,-0.568 1.11301,-0.8 1.693,-0.8c0.31799,0 0.79001,0.071 1.28201,0.402c0.474,0.286 0.81299,0.724 0.96298,1.245c0.11801,0.421 0.16699,1.082 -0.289,1.831l-0.14798,0.212l-17.66702,21.635l0,26.004c0,1.279 -0.96399,2.244 -2.24399,2.244z"/>
  </g>
 </g>
</svg>