<?xml version="1.0" encoding="utf-8"?>

<svg xmlns="http://www.w3.org/2000/svg" version="1.1"
	height="328" width="330">
	<g>
		<polygon fill="#CD4442" points="249.52,58.315 169.503,58.315 114.713,175.004 141.375,161.657 141.375,161.657 150.841,156.918 156.45,154.016 106.913,262.415 242.857,112.062 193.605,135.428" />
		<polygon fill="#1787B9" points="155.818,58.315 98.223,183.263 109.051,177.84 165.49,58.315" />
		<polygon fill="#1787B9" points="150.841,156.918 141.375,161.657 85.843,285.72 99.266,270.874" />
		<polygon fill="#FFFFFF" points="165.49,58.315 109.051,177.84 114.713,175.004 169.503,58.315" />
		<polygon fill="#FFFFFF" points="106.913,262.415 156.45,154.016 150.841,156.918 99.266,270.874" />
	</g>

	<g>
		<path fill="#1787B9" d="M165,327.489c-90.719,0-164.523-72.903-164.523-162.513C0.477,75.368,74.281,2.466,165,2.466s164.523,72.902,164.523,162.511C329.523,254.586,255.719,327.489,165,327.489z M165,7.91C77.32,7.91,5.988,78.369,5.988,164.977c0,86.607,71.333,157.069,159.012,157.069c87.679,0,159.012-70.462,159.012-157.069C324.012,78.369,252.679,7.91,165,7.91z" />

		<path fill="#CD4442" d="M165,320.355c-86.736,0-157.302-69.703-157.302-155.379C7.698,79.301,78.264,9.599,165,9.599c86.735,0,157.3,69.702,157.3,155.377C322.3,250.652,251.735,320.355,165,320.355z M165,15.043c-83.698,0-151.791,67.26-151.791,149.934c0,82.675,68.093,149.936,151.791,149.936c83.697,0,151.789-67.261,151.789-149.936C316.789,82.303,248.697,15.043,165,15.043z" />
	</g>
</svg>